<svg xmlns="http://www.w3.org/2000/svg" width="70" height="30" fill="none" viewBox="0 0 70 30"><path fill="#756AB6" d="M18.75 17.5L17.825 17.6537C17.8027 17.5195 17.8099 17.3819 17.8461 17.2507C17.8823 17.1194 17.9466 16.9977 18.0347 16.8938C18.1227 16.79 18.2323 16.7065 18.3558 16.6493C18.4793 16.5921 18.6139 16.5625 18.75 16.5625V17.5ZM5 17.5V18.4375C4.75136 18.4375 4.5129 18.3387 4.33709 18.1629C4.16127 17.9871 4.0625 17.7486 4.0625 17.5H5ZM7.5 4.0625H21.7V5.9375H7.5V4.0625ZM23.2 18.4375H18.75V16.5625H23.2V18.4375ZM19.675 17.3462L20.6825 23.39L18.8325 23.6987L17.825 17.6537L19.675 17.3462ZM18.525 25.9375H18.2575V24.0625H18.5237L18.525 25.9375ZM14.3562 23.85L11.2125 19.1337L12.7725 18.0937L15.9162 22.81L14.3562 23.85ZM9.9125 18.4375H5V16.5625H9.9125V18.4375ZM4.0625 17.5V7.5H5.9375V17.5H4.0625ZM25.0712 6.825L26.5712 14.325L24.7337 14.6937L23.2337 7.19375L25.0712 6.825ZM11.2125 19.1337C11.0699 18.9196 10.8766 18.7453 10.6498 18.6239C10.423 18.5024 10.1698 18.4388 9.9125 18.4387V16.5637C11.0625 16.5637 12.135 17.1375 12.7725 18.0937L11.2125 19.1337ZM20.6825 23.39C20.7348 23.7034 20.7182 24.0256 20.6338 24.332C20.5495 24.6383 20.3994 24.9225 20.1941 25.165C19.9888 25.4074 19.7331 25.6022 19.4449 25.7359C19.1566 25.8695 18.8427 25.9375 18.525 25.9375V24.0637C18.5703 24.0636 18.6151 24.0537 18.6561 24.0346C18.6972 24.0154 18.7336 23.9876 18.7629 23.953C18.7921 23.9184 18.8135 23.8778 18.8255 23.8342C18.8376 23.7905 18.8399 23.7434 18.8325 23.6987L20.6825 23.39ZM23.2 16.5637C23.4312 16.5638 23.6595 16.5125 23.8685 16.4137C24.0775 16.3148 24.2619 16.1708 24.4085 15.992C24.5551 15.8133 24.6602 15.6042 24.7162 15.3799C24.7723 15.1556 24.7778 14.9217 24.7325 14.695L26.5712 14.3262C26.6709 14.825 26.6587 15.3408 26.5355 15.8343C26.4122 16.3277 26.181 16.7876 25.8585 17.1809C25.536 17.5742 25.1303 17.891 24.6706 18.1085C24.2108 18.326 23.7086 18.4388 23.2 18.4387V16.5637ZM21.7 4.0625C22.4946 4.06234 23.2648 4.33875 23.8794 4.8424C24.4941 5.34605 24.9152 6.04584 25.0712 6.825L23.2337 7.19375C23.1631 6.83902 22.9717 6.52102 22.692 6.2917C22.4123 6.06238 22.0617 5.9372 21.7 5.9375V4.0625ZM18.2575 25.9375C17.4858 25.9374 16.7261 25.7481 16.0458 25.384C15.3654 25.0198 14.7855 24.4933 14.3575 23.8512L15.9162 22.8112C16.1732 23.1967 16.5213 23.5127 16.9298 23.7312C17.3382 23.9497 17.7943 24.0627 18.2575 24.0625V25.9375ZM7.5 5.9375C6.6375 5.9375 5.9375 6.6375 5.9375 7.5H4.0625C4.0625 6.58832 4.42466 5.71398 5.06932 5.06932C5.71398 4.42466 6.58832 4.0625 7.5 4.0625V5.9375Z"/><path stroke="#756AB6" stroke-width="1.5" d="M10 17.5V5"/><path fill="#756AB6" d="M58.75 12.5L57.825 12.3463C57.8027 12.4806 57.8099 12.6181 57.8461 12.7494C57.8823 12.8806 57.9466 13.0024 58.0347 13.1062C58.1227 13.2101 58.2323 13.2935 58.3558 13.3507C58.4793 13.4079 58.6139 13.4376 58.75 13.4375V12.5ZM45 12.5V11.5625C44.7514 11.5625 44.5129 11.6613 44.3371 11.8371C44.1613 12.0129 44.0625 12.2514 44.0625 12.5H45ZM47.5 25.9375H61.7V24.0625H47.5V25.9375ZM63.2 11.5625H58.75V13.4375H63.2V11.5625ZM59.675 12.6538L60.6825 6.61003L58.8325 6.30128L57.825 12.3463L59.675 12.6538ZM58.525 4.06253H58.2575V5.93753H58.5238L58.525 4.06253ZM54.3563 6.15003L51.2125 10.8663L52.7725 11.9063L55.9163 7.19003L54.3563 6.15003ZM49.9125 11.5625H45V13.4375H49.9125V11.5625ZM44.0625 12.5V22.5H45.9375V12.5H44.0625ZM65.0713 23.175L66.5713 15.675L64.7338 15.3063L63.2338 22.8063L65.0713 23.175ZM51.2125 10.8663C51.0699 11.0804 50.8766 11.2547 50.6498 11.3762C50.423 11.4976 50.1698 11.5612 49.9125 11.5613V13.4363C51.0625 13.4363 52.135 12.8625 52.7725 11.9063L51.2125 10.8663ZM60.6825 6.61003C60.7346 6.29674 60.7178 5.97462 60.6334 5.66846C60.549 5.3623 60.3989 5.0782 60.1936 4.83589C59.9883 4.59359 59.7326 4.3989 59.4445 4.26535C59.1564 4.13179 58.8426 4.06258 58.525 4.06253L58.5238 5.93753C58.5691 5.93764 58.6151 5.9476 58.6561 5.96673C58.6972 5.98585 58.7336 6.01368 58.7629 6.04828C58.7921 6.08288 58.8135 6.12343 58.8255 6.16712C58.8376 6.2108 58.8399 6.25658 58.8325 6.30128L60.6825 6.61003ZM63.2 13.4363C64.1875 13.4363 64.925 14.3388 64.7325 15.305L66.5713 15.6738C66.6707 15.1751 66.6583 14.6594 66.535 14.1661C66.4117 13.6729 66.1804 13.2131 65.858 12.82C65.5355 12.4268 65.1298 12.1102 64.6702 11.8927C64.2106 11.6753 63.7085 11.5625 63.2 11.5625V13.4363ZM61.7 25.9375C62.4946 25.9377 63.2648 25.6613 63.8794 25.1576C64.4941 24.654 64.9152 23.9529 65.0713 23.1738L63.2338 22.805C63.1629 23.1595 62.9713 23.4785 62.6916 23.7076C62.412 23.9366 62.0615 24.0629 61.7 24.0625V25.9375ZM58.2575 4.06253C57.4858 4.06259 56.7261 4.2519 56.0458 4.61605C55.3654 4.98021 54.7855 5.5067 54.3575 6.14878L55.9163 7.19003C56.1732 6.8046 56.5213 6.48735 56.9298 6.26885C57.3382 6.05035 57.7943 5.93736 58.2575 5.93753V4.06253ZM47.5 24.0625C46.6375 24.0625 45.9375 23.3625 45.9375 22.5H44.0625C44.0625 23.4117 44.4247 24.2861 45.0693 24.9307C45.714 25.5754 46.5883 25.9375 47.5 25.9375V24.0625Z"/><path stroke="#756AB6" stroke-width="1.5" d="M50 12.5V25"/></svg>