<svg width="230" height="66" viewBox="0 0 230 66" fill="none" xmlns="http://www.w3.org/2000/svg">
<g clip-path="url(#clip0_1_241)">
<path d="M58.6667 12.8334H7.33333C5.38841 12.8334 3.52315 13.606 2.14788 14.9813C0.772617 16.3565 0 18.2218 0 20.1667L0 47.6667C0 49.6116 0.772617 51.4769 2.14788 52.8522C3.52315 54.2274 5.38841 55 7.33333 55H28.2627C29.216 56.0927 30.9705 56.8334 33 56.8334C35.0295 56.8334 36.7858 56.0927 37.7373 55H58.6667C60.6116 55 62.4768 54.2274 63.8521 52.8522C65.2274 51.4769 66 49.6116 66 47.6667V20.1667C66 18.2218 65.2274 16.3565 63.8521 14.9813C62.4768 13.606 60.6116 12.8334 58.6667 12.8334Z" fill="#AC87C5"/>
<path d="M36.6667 49.5C36.6667 50.4725 36.2804 51.4051 35.5928 52.0928C34.9051 52.7804 33.9725 53.1667 33 53.1667C32.0276 53.1667 31.0949 52.7804 30.4073 52.0928C29.7197 51.4051 29.3334 50.4725 29.3334 49.5V16.5C29.3334 15.5276 29.7197 14.5949 30.4073 13.9073C31.0949 13.2197 32.0276 12.8334 33 12.8334C33.9725 12.8334 34.9051 13.2197 35.5928 13.9073C36.2804 14.5949 36.6667 15.5276 36.6667 16.5V49.5Z" fill="#292F33"/>
<path d="M33.0001 47.6667C33.0001 48.6391 32.6138 49.5718 31.9261 50.2594C31.2385 50.947 30.3059 51.3333 29.3334 51.3333H7.33341C6.36095 51.3333 5.42832 50.947 4.74069 50.2594C4.05306 49.5718 3.66675 48.6391 3.66675 47.6667V14.6667C3.66675 13.6942 4.05306 12.7616 4.74069 12.0739C5.42832 11.3863 6.36095 11 7.33341 11H29.3334C30.3059 11 31.2385 11.3863 31.9261 12.0739C32.6138 12.7616 33.0001 13.6942 33.0001 14.6667V47.6667Z" fill="#E0AED0"/>
<path d="M32.9999 47.6667C31.1684 44.0037 26.2954 44 25.6666 44C21.9999 44 16.4999 47.6667 10.9999 47.6667C9.16659 47.6667 7.33325 46.024 7.33325 44V14.6667C7.33325 12.6427 9.16659 11 10.9999 11C16.9674 11 21.9999 7.33337 25.6666 7.33337C31.1666 7.33337 32.9999 10.8094 32.9999 12.8334V47.6667Z" fill="#E1E8ED"/>
<path d="M62.3333 47.6667C62.3333 48.6391 61.947 49.5718 61.2594 50.2594C60.5718 50.947 59.6391 51.3333 58.6667 51.3333H36.6667C35.6942 51.3333 34.7616 50.947 34.0739 50.2594C33.3863 49.5718 33 48.6391 33 47.6667V14.6667C33 13.6942 33.3863 12.7616 34.0739 12.0739C34.7616 11.3863 35.6942 11 36.6667 11H58.6667C59.6391 11 60.5718 11.3863 61.2594 12.0739C61.947 12.7616 62.3333 13.6942 62.3333 14.6667V47.6667Z" fill="#E0AED0"/>
<path d="M33 47.6667C34.8315 44.0037 39.7045 44 40.3333 44C44 44 49.5 47.6667 55 47.6667C56.8333 47.6667 58.6667 46.024 58.6667 44V14.6667C58.6667 12.6427 56.8333 11 55 11C49.0307 11 44 7.33337 40.3333 7.33337C34.8333 7.33337 33 10.8094 33 12.8334V47.6667Z" fill="#CCD6DD"/>
</g>
<path d="M110.416 24.96C110.416 27 109.696 28.764 108.256 30.252C106.816 31.716 104.716 32.772 101.956 33.42C103.444 33.828 104.572 34.5 105.34 35.436C106.108 36.348 106.492 37.404 106.492 38.604C106.492 40.5 105.892 42.144 104.692 43.536C103.516 44.928 101.788 46.008 99.5076 46.776C97.2276 47.52 94.4796 47.892 91.2636 47.892C90.0636 47.892 89.1036 47.856 88.3836 47.784C88.3596 48.456 88.0716 48.96 87.5196 49.296C86.9676 49.632 86.2596 49.8 85.3956 49.8C84.5316 49.8 83.9316 49.608 83.5956 49.224C83.2836 48.84 83.1516 48.276 83.1996 47.532C83.4156 44.172 83.8356 40.656 84.4596 36.984C85.0836 33.288 85.8756 29.724 86.8356 26.292C87.0036 25.692 87.3396 25.272 87.8436 25.032C88.3476 24.792 89.0076 24.672 89.8236 24.672C91.2876 24.672 92.0196 25.08 92.0196 25.896C92.0196 26.232 91.9476 26.616 91.8036 27.048C91.1796 28.92 90.5556 31.464 89.9316 34.68C89.3076 37.872 88.8636 40.92 88.5996 43.824C89.7516 43.92 90.6876 43.968 91.4076 43.968C94.7676 43.968 97.2276 43.488 98.7876 42.528C100.372 41.544 101.164 40.296 101.164 38.784C101.164 37.728 100.708 36.84 99.7956 36.12C98.9076 35.4 97.4076 35.004 95.2956 34.932C94.8156 34.908 94.4796 34.788 94.2876 34.572C94.0956 34.356 93.9996 34.008 93.9996 33.528C93.9996 32.832 94.1436 32.268 94.4316 31.836C94.7196 31.404 95.2476 31.176 96.0156 31.152C97.7196 31.104 99.2556 30.852 100.624 30.396C102.016 29.94 103.108 29.304 103.9 28.488C104.692 27.648 105.088 26.676 105.088 25.572C105.088 24.18 104.404 23.088 103.036 22.296C101.668 21.48 99.5676 21.072 96.7356 21.072C94.1676 21.072 91.6836 21.408 89.2836 22.08C86.8836 22.728 84.8436 23.556 83.1636 24.564C82.3956 25.02 81.7476 25.248 81.2196 25.248C80.7876 25.248 80.4516 25.104 80.2116 24.816C79.9956 24.504 79.8876 24.12 79.8876 23.664C79.8876 23.064 80.0076 22.548 80.2476 22.116C80.5116 21.684 81.1236 21.192 82.0836 20.64C84.0996 19.488 86.4636 18.588 89.1756 17.94C91.8876 17.292 94.6596 16.968 97.4916 16.968C101.836 16.968 105.076 17.7 107.212 19.164C109.348 20.628 110.416 22.56 110.416 24.96ZM127.967 36.948C128.279 36.948 128.519 37.104 128.687 37.416C128.855 37.728 128.939 38.124 128.939 38.604C128.939 39.756 128.591 40.44 127.895 40.656C126.455 41.16 124.871 41.448 123.143 41.52C122.687 43.536 121.787 45.156 120.443 46.38C119.099 47.58 117.575 48.18 115.871 48.18C114.431 48.18 113.195 47.832 112.163 47.136C111.155 46.44 110.387 45.516 109.859 44.364C109.331 43.212 109.067 41.964 109.067 40.62C109.067 38.796 109.415 37.176 110.111 35.76C110.807 34.32 111.767 33.204 112.991 32.412C114.215 31.596 115.571 31.188 117.059 31.188C118.883 31.188 120.347 31.824 121.451 33.096C122.579 34.344 123.239 35.892 123.431 37.74C124.559 37.668 125.903 37.428 127.463 37.02C127.655 36.972 127.823 36.948 127.967 36.948ZM116.159 44.364C116.927 44.364 117.587 44.052 118.139 43.428C118.715 42.804 119.099 41.904 119.291 40.728C118.547 40.224 117.971 39.564 117.563 38.748C117.179 37.932 116.987 37.068 116.987 36.156C116.987 35.772 117.023 35.388 117.095 35.004H116.915C115.955 35.004 115.151 35.472 114.503 36.408C113.879 37.32 113.567 38.616 113.567 40.296C113.567 41.616 113.819 42.624 114.323 43.32C114.851 44.016 115.463 44.364 116.159 44.364ZM144.409 36.948C144.721 36.948 144.961 37.104 145.129 37.416C145.297 37.728 145.381 38.124 145.381 38.604C145.381 39.756 145.033 40.44 144.337 40.656C142.897 41.16 141.313 41.448 139.585 41.52C139.129 43.536 138.229 45.156 136.885 46.38C135.541 47.58 134.017 48.18 132.313 48.18C130.873 48.18 129.637 47.832 128.605 47.136C127.597 46.44 126.829 45.516 126.301 44.364C125.773 43.212 125.509 41.964 125.509 40.62C125.509 38.796 125.857 37.176 126.553 35.76C127.249 34.32 128.209 33.204 129.433 32.412C130.657 31.596 132.013 31.188 133.501 31.188C135.325 31.188 136.789 31.824 137.893 33.096C139.021 34.344 139.681 35.892 139.873 37.74C141.001 37.668 142.345 37.428 143.905 37.02C144.097 36.972 144.265 36.948 144.409 36.948ZM132.601 44.364C133.369 44.364 134.029 44.052 134.581 43.428C135.157 42.804 135.541 41.904 135.733 40.728C134.989 40.224 134.413 39.564 134.005 38.748C133.621 37.932 133.429 37.068 133.429 36.156C133.429 35.772 133.465 35.388 133.537 35.004H133.357C132.397 35.004 131.593 35.472 130.945 36.408C130.321 37.32 130.009 38.616 130.009 40.296C130.009 41.616 130.261 42.624 130.765 43.32C131.293 44.016 131.905 44.364 132.601 44.364ZM157.792 44.256C158.776 44.448 159.268 44.988 159.268 45.876C159.268 46.476 158.992 47.016 158.44 47.496C157.912 47.952 157.144 48.18 156.136 48.18C154.408 48.18 152.992 47.652 151.888 46.596C150.808 45.516 150.268 44.112 150.268 42.384C150.268 41.448 150.748 40.776 151.708 40.368C152.764 39.912 153.52 39.432 153.976 38.928C154.432 38.4 154.66 37.764 154.66 37.02C154.66 36.588 154.564 36.264 154.372 36.048C154.204 35.832 153.988 35.724 153.724 35.724C153.076 35.724 152.356 36.192 151.564 37.128C150.796 38.064 150.076 39.276 149.404 40.764C148.732 42.228 148.204 43.74 147.82 45.3C147.556 46.428 147.244 47.196 146.884 47.604C146.548 47.988 146.008 48.18 145.264 48.18C144.52 48.18 143.968 47.916 143.608 47.388C143.272 46.836 143.044 45.996 142.924 44.868C142.804 43.74 142.744 42.084 142.744 39.9C142.744 36.204 143.116 32.352 143.86 28.344C144.628 24.336 145.744 20.976 147.208 18.264C148.696 15.528 150.472 14.16 152.536 14.16C153.64 14.16 154.528 14.64 155.2 15.6C155.896 16.536 156.244 17.76 156.244 19.272C156.244 21.696 155.536 24.216 154.12 26.832C152.704 29.424 150.4 32.46 147.208 35.94C147.136 37.188 147.1 38.472 147.1 39.792C148.252 36.792 149.572 34.62 151.06 33.276C152.548 31.908 153.94 31.224 155.236 31.224C156.436 31.224 157.396 31.632 158.116 32.448C158.86 33.264 159.232 34.272 159.232 35.472C159.232 36.792 158.896 38.004 158.224 39.108C157.552 40.212 156.4 41.196 154.768 42.06C154.912 42.78 155.2 43.284 155.632 43.572C156.088 43.836 156.808 44.064 157.792 44.256ZM151.78 17.724C151.348 17.724 150.868 18.348 150.34 19.596C149.812 20.82 149.296 22.488 148.792 24.6C148.312 26.688 147.916 28.968 147.604 31.44C149.092 29.688 150.316 27.78 151.276 25.716C152.26 23.652 152.752 21.78 152.752 20.1C152.752 19.332 152.668 18.744 152.5 18.336C152.332 17.928 152.092 17.724 151.78 17.724ZM177.816 48.18C176.928 48.18 176.292 47.988 175.908 47.604C175.524 47.196 175.332 46.44 175.332 45.336C175.332 44.592 175.404 43.644 175.548 42.492C175.716 41.316 175.98 39.708 176.34 37.668C176.964 33.9 177.456 30.636 177.816 27.876C178.032 26.148 178.14 24.708 178.14 23.556C178.14 22.476 177.744 21.936 176.952 21.936C176.328 21.936 175.572 22.26 174.684 22.908C173.82 23.532 172.86 24.54 171.804 25.932C171.468 26.388 171.096 26.616 170.688 26.616C170.352 26.616 170.052 26.46 169.788 26.148C169.548 25.812 169.428 25.44 169.428 25.032C169.428 24.648 169.5 24.264 169.644 23.88C169.812 23.472 170.076 23.016 170.436 22.512C171.588 20.904 172.872 19.668 174.288 18.804C175.704 17.916 177.12 17.472 178.536 17.472C179.856 17.472 180.864 17.892 181.56 18.732C182.28 19.572 182.64 20.796 182.64 22.404C182.64 23.052 182.58 23.82 182.46 24.708C182.34 25.572 182.232 26.28 182.136 26.832C182.04 27.384 181.968 27.768 181.92 27.984C183.288 24.072 184.824 21.348 186.528 19.812C188.232 18.252 190.104 17.472 192.144 17.472C193.704 17.472 194.928 18.024 195.816 19.128C196.728 20.232 197.184 21.792 197.184 23.808C197.184 24.6 197.076 25.584 196.86 26.76C198.06 23.448 199.464 21.072 201.072 19.632C202.68 18.192 204.528 17.472 206.616 17.472C208.296 17.472 209.58 18.012 210.468 19.092C211.38 20.172 211.836 21.684 211.836 23.628C211.836 24.684 211.68 25.968 211.368 27.48L209.172 37.776C208.932 38.976 208.812 40.008 208.812 40.872C208.812 41.88 209.04 42.636 209.496 43.14C209.976 43.644 210.636 43.896 211.476 43.896C212.268 43.896 213.036 43.632 213.78 43.104C214.548 42.576 215.448 41.7 216.48 40.476C216.768 40.14 217.092 39.972 217.452 39.972C217.764 39.972 218.004 40.116 218.172 40.404C218.364 40.692 218.46 41.088 218.46 41.592C218.46 42.528 218.232 43.272 217.776 43.824C216.528 45.336 215.292 46.44 214.068 47.136C212.844 47.832 211.56 48.18 210.216 48.18C208.176 48.18 206.58 47.58 205.428 46.38C204.276 45.156 203.7 43.524 203.7 41.484C203.7 40.068 203.988 38.016 204.564 35.328L206.004 28.74C206.052 28.524 206.136 28.14 206.256 27.588C206.376 27.036 206.472 26.52 206.544 26.04C206.616 25.536 206.652 25.044 206.652 24.564C206.652 23.724 206.484 23.1 206.148 22.692C205.836 22.26 205.38 22.044 204.78 22.044C203.652 22.044 202.464 22.776 201.216 24.24C199.992 25.68 198.816 28.08 197.688 31.44C196.584 34.8 195.684 39.168 194.988 44.544C194.82 45.984 194.52 46.956 194.088 47.46C193.68 47.94 193.008 48.18 192.072 48.18C191.256 48.18 190.656 47.988 190.272 47.604C189.912 47.22 189.732 46.5 189.732 45.444C189.732 44.46 189.864 43.176 190.128 41.592C190.392 39.984 190.728 38.1 191.136 35.94C192.24 30.132 192.792 26.388 192.792 24.708C192.792 23.796 192.612 23.124 192.252 22.692C191.916 22.26 191.4 22.044 190.704 22.044C189.528 22.044 188.316 22.716 187.068 24.06C185.82 25.38 184.596 27.744 183.396 31.152C182.22 34.536 181.236 39.12 180.444 44.904C180.276 46.128 180.024 46.98 179.688 47.46C179.376 47.94 178.752 48.18 177.816 48.18ZM228.648 41.052C228.96 41.052 229.2 41.196 229.368 41.484C229.56 41.772 229.656 42.168 229.656 42.672C229.656 43.536 229.452 44.28 229.044 44.904C228.372 45.936 227.484 46.74 226.38 47.316C225.3 47.892 224.004 48.18 222.492 48.18C220.188 48.18 218.4 47.496 217.128 46.128C215.856 44.736 215.22 42.864 215.22 40.512C215.22 38.856 215.568 37.32 216.264 35.904C216.96 34.464 217.92 33.324 219.144 32.484C220.392 31.644 221.796 31.224 223.356 31.224C224.748 31.224 225.864 31.644 226.704 32.484C227.544 33.3 227.964 34.416 227.964 35.832C227.964 37.488 227.364 38.916 226.164 40.116C224.988 41.292 222.972 42.228 220.116 42.924C220.692 44.028 221.664 44.58 223.032 44.58C224.016 44.58 224.82 44.352 225.444 43.896C226.092 43.44 226.836 42.672 227.676 41.592C227.964 41.232 228.288 41.052 228.648 41.052ZM222.744 34.752C221.856 34.752 221.1 35.268 220.476 36.3C219.876 37.332 219.576 38.58 219.576 40.044V40.116C220.992 39.78 222.108 39.276 222.924 38.604C223.74 37.932 224.148 37.152 224.148 36.264C224.148 35.808 224.016 35.448 223.752 35.184C223.512 34.896 223.176 34.752 222.744 34.752Z" fill="#756AB6"/>
<defs>
<clipPath id="clip0_1_241">
<rect width="66" height="66" fill="white"/>
</clipPath>
</defs>
</svg>
